<?xml version="1.0" standalone="no"?>
<!DOCTYPE svg PUBLIC "-//W3C//DTD SVG 20010904//EN"
 "http://www.w3.org/TR/2001/REC-SVG-20010904/DTD/svg10.dtd">
<svg version="1.0" xmlns="http://www.w3.org/2000/svg"
 width="348.000000pt" height="377.000000pt" viewBox="0 0 348.000000 377.000000"
 preserveAspectRatio="xMidYMid meet">

<g transform="translate(0.000000,377.000000) scale(0.100000,-0.100000)"
fill="#000000" stroke="none">
<path d="M2293 3267 c-64 -43 -69 -126 -13 -206 26 -36 31 -51 27 -80 -6 -38
-159 -330 -180 -343 -32 -21 -165 3 -202 35 -23 20 -25 31 -30 136 -3 63 -8
129 -11 147 -6 33 -7 32 60 93 60 54 8 141 -84 141 -58 0 -120 -47 -120 -90 0
-26 39 -80 58 -80 5 0 15 -14 23 -31 10 -25 10 -54 1 -145 -7 -62 -15 -120
-18 -129 -11 -28 -59 -44 -153 -51 -129 -10 -130 -9 -211 161 -37 77 -70 150
-74 162 -7 23 5 51 49 112 32 44 32 88 0 123 -61 66 -225 34 -270 -52 -36 -70
-6 -130 76 -151 50 -13 99 -54 99 -84 0 -7 14 -55 31 -107 60 -186 56 -213
-44 -264 -39 -20 -103 -58 -141 -85 -39 -27 -79 -49 -91 -49 -21 0 -55 20 -90
53 -11 11 -30 26 -43 35 -37 24 -55 68 -47 118 9 64 -13 94 -71 94 -72 0 -134
-71 -125 -145 4 -37 38 -55 106 -55 63 0 64 0 106 -47 56 -64 79 -103 79 -134
0 -15 -25 -61 -63 -115 l-63 -89 -50 0 c-44 1 -112 22 -236 72 -42 18 -54 42
-61 123 -13 150 -127 194 -238 92 -81 -76 -110 -191 -70 -279 20 -44 62 -73
104 -73 33 0 87 24 115 50 38 36 78 29 193 -29 176 -90 183 -99 154 -205 -23
-84 -38 -92 -187 -101 -127 -8 -117 -11 -175 58 -23 27 -74 37 -99 19 -25 -18
-44 -60 -44 -100 0 -112 100 -157 160 -72 12 17 32 35 44 39 11 5 67 3 123 -3
139 -15 143 -20 160 -168 7 -62 18 -134 25 -160 11 -44 10 -51 -8 -75 -24 -32
-183 -113 -235 -120 -31 -5 -42 -1 -66 23 -97 97 -189 98 -238 4 -21 -41 -19
-145 4 -196 26 -57 83 -111 132 -126 37 -10 46 -10 77 8 43 22 82 85 82 132 0
50 33 75 146 110 107 34 159 39 186 19 27 -21 61 -95 54 -121 -6 -26 -137
-185 -163 -200 -9 -5 -37 -8 -61 -7 -59 2 -92 -20 -92 -60 0 -82 95 -144 157
-104 23 16 25 22 20 69 l-5 51 73 71 c79 76 121 100 157 90 13 -3 47 -29 77
-57 29 -28 88 -73 130 -100 119 -76 116 -72 116 -115 -1 -50 -65 -223 -92
-246 -8 -6 -40 -12 -71 -14 -76 -3 -127 -25 -152 -66 -25 -41 -25 -78 -1 -126
36 -70 101 -117 183 -132 73 -14 132 0 172 39 25 25 30 38 30 79 0 38 -7 59
-37 103 -20 31 -37 64 -37 74 0 22 97 212 124 243 22 25 86 30 162 11 73 -19
80 -35 88 -210 l8 -153 -41 -36 c-88 -79 -30 -174 95 -155 34 5 50 14 69 39
33 44 32 61 -11 104 -20 20 -37 47 -39 61 -1 15 -6 51 -9 81 -7 67 16 216 37
237 8 8 50 21 93 29 44 8 110 22 147 31 96 24 108 16 175 -117 28 -58 52 -117
52 -132 0 -17 -16 -45 -45 -79 -71 -83 -74 -166 -8 -216 32 -25 45 -28 112
-28 66 0 83 4 130 30 76 42 111 93 111 161 0 47 -4 56 -32 83 -22 21 -51 35
-88 42 -87 19 -94 26 -130 141 -17 57 -36 113 -41 126 -23 58 -7 87 87 155
111 82 116 82 204 9 78 -65 80 -68 80 -143 0 -64 2 -69 30 -89 73 -52 186 44
165 140 -9 39 -31 50 -104 50 l-59 0 -52 58 c-85 94 -96 147 -41 207 10 11 38
57 62 103 48 95 38 92 159 47 36 -13 94 -34 129 -47 79 -29 101 -58 101 -139
0 -71 28 -116 85 -137 38 -13 44 -13 92 8 143 61 198 270 95 361 -31 28 -41
31 -82 27 -32 -3 -62 -15 -93 -38 -25 -18 -57 -32 -70 -32 -22 0 -191 78 -274
128 -44 26 -57 60 -43 113 15 56 41 71 143 78 l85 6 41 -42 c44 -45 78 -52
104 -23 58 64 31 175 -43 175 -26 0 -39 -8 -63 -36 -28 -36 -31 -37 -93 -37
-116 0 -164 40 -164 135 0 25 -11 97 -25 160 -20 96 -23 119 -12 137 15 25
271 151 308 151 18 0 45 -15 80 -46 62 -55 114 -68 172 -44 50 22 71 65 71
152 0 79 -16 120 -69 183 -79 91 -217 70 -241 -37 -17 -75 -26 -101 -39 -114
-11 -12 -104 -44 -308 -108 -52 -16 -107 26 -107 82 0 32 10 49 68 116 37 43
87 97 112 121 45 42 46 42 101 36 71 -8 89 7 89 74 0 55 -5 64 -50 97 -40 29
-94 33 -129 9 -21 -15 -23 -22 -17 -71 6 -55 -9 -105 -36 -116 -7 -3 -55 -39
-106 -81 -57 -46 -103 -76 -117 -76 -13 0 -38 12 -57 28 -18 15 -42 34 -53 44
-11 9 -40 31 -65 50 -71 53 -77 74 -46 166 93 283 105 304 179 308 23 0 57 2
76 3 52 2 101 58 101 117 0 56 -17 90 -69 137 -56 50 -101 67 -180 66 -51 0
-73 -5 -98 -22z m-482 -800 c41 -28 46 -46 20 -78 -17 -22 -27 -24 -99 -24
-65 0 -84 4 -101 19 -79 71 85 147 180 83z m520 -84 c38 -23 72 -89 58 -115
-20 -38 -81 -12 -110 48 -34 72 -10 103 52 67z m-1072 -139 c71 -91 -61 -304
-181 -292 -41 4 -71 44 -70 96 2 142 183 283 251 196z m831 -73 c43 -22 80
-75 80 -113 0 -110 -133 -154 -225 -75 -30 26 -38 40 -41 77 -6 56 10 87 56
111 44 24 86 24 130 0z m443 -221 c33 -26 49 -76 49 -150 0 -111 -54 -172
-128 -147 -72 24 -103 128 -68 230 27 81 92 110 147 67z m-814 -125 c108 -55
109 -230 2 -281 -51 -25 -139 -15 -185 20 -48 36 -66 74 -66 140 0 48 4 60 31
91 17 19 45 39 63 45 40 12 117 5 155 -15z m-538 -128 c41 -31 69 -131 50
-179 -28 -74 -112 3 -115 105 -1 74 25 105 65 74z m913 -289 c29 -83 -122
-186 -169 -115 -22 34 -3 79 48 117 54 40 107 39 121 -2z m-959 -111 c54 -54
60 -117 11 -117 -15 0 -37 14 -60 40 -74 82 -28 154 49 77z m1285 -7 c24 -44
-43 -125 -113 -137 -51 -8 -65 16 -41 68 32 73 129 116 154 69z m-482 -245
c43 -18 82 -69 82 -109 0 -50 -35 -93 -96 -115 -30 -12 -70 -21 -89 -21 -59 0
-142 37 -165 74 -32 52 -27 102 15 141 19 18 51 38 72 43 46 13 130 7 181 -13z"/>
</g>
</svg>
